<?xml version="1.0" standalone="no"?>
<!DOCTYPE svg PUBLIC "-//W3C//DTD SVG 20010904//EN"
 "http://www.w3.org/TR/2001/REC-SVG-20010904/DTD/svg10.dtd">
<svg version="1.0" xmlns="http://www.w3.org/2000/svg"
 width="400.000000pt" height="400.000000pt" viewBox="0 0 400.000000 400.000000"
 preserveAspectRatio="xMidYMid meet">
<metadata>
Created by potrace 1.14, written by Peter Selinger 2001-2017
</metadata>
<g transform="translate(0.000000,400.000000) scale(0.100000,-0.100000)"
fill="#000000" stroke="none">
<path d="M0 2000 l0 -2000 2000 0 2000 0 0 2000 0 2000 -2000 0 -2000 0 0
-2000z m2306 992 c4 -12 1 -29 -6 -37 -27 -32 -54 -16 -175 105 l-120 120
-120 -120 c-94 -94 -126 -120 -147 -120 -24 0 -48 23 -48 46 0 4 71 79 157
166 l157 158 149 -147 c81 -82 150 -158 153 -171z m-346 -257 l0 -245 -239 0
c-146 0 -242 4 -246 10 -7 12 12 50 34 67 11 8 61 12 154 13 75 0 137 3 137 8
0 4 -56 63 -125 132 -69 69 -125 132 -125 140 0 24 21 40 50 40 19 0 55 -30
145 -120 l120 -120 2 118 c2 64 5 127 8 139 7 29 43 63 67 63 17 0 18 -15 18
-245z m149 219 c19 -24 21 -40 21 -160 0 -74 3 -134 8 -134 4 0 61 54 127 120
118 119 145 136 173 108 28 -28 11 -55 -108 -173 -66 -66 -120 -123 -120 -127
0 -5 61 -8 135 -8 131 0 137 -1 160 -25 14 -13 25 -33 25 -45 0 -20 -3 -20
-242 -18 l-243 3 -3 243 -2 242 24 0 c15 0 33 -11 45 -26z m-601 -206 c27 -27
10 -55 -108 -173 l-120 -121 120 -119 c129 -128 140 -151 92 -183 -22 -14 -27
-11 -182 144 l-160 158 152 153 c151 151 178 169 206 141z m1194 -135 c82 -81
148 -152 148 -158 0 -15 -304 -315 -318 -315 -15 0 -52 36 -52 52 0 6 54 66
120 133 66 66 120 125 120 131 0 5 -50 59 -111 119 -61 61 -115 118 -120 128
-15 26 6 57 39 57 21 0 57 -30 174 -147z m-742 -445 c0 -136 -2 -248 -5 -248
-2 0 -16 5 -30 12 -45 21 -55 54 -55 195 l0 127 -128 -127 c-71 -70 -135 -127
-142 -127 -19 0 -50 30 -50 49 0 9 57 73 127 143 l128 128 -130 0 c-112 0
-135 3 -162 20 -18 11 -33 24 -33 29 0 5 -3 16 -6 25 -5 14 21 16 228 18 128
2 239 3 246 4 9 0 12 -55 12 -248z m570 224 c0 -10 -12 -29 -26 -43 -24 -22
-35 -24 -160 -29 l-134 -5 120 -120 c96 -96 120 -125 120 -148 0 -20 -7 -31
-26 -39 -24 -11 -31 -6 -152 115 -70 70 -131 127 -135 127 -4 0 -7 -62 -7
-138 0 -131 -1 -140 -22 -159 -13 -11 -33 -24 -45 -28 l-23 -6 0 245 0 246
245 0 c231 0 245 -1 245 -18z m-646 -542 l122 -120 119 120 c118 119 145 136
173 108 28 -28 10 -55 -141 -206 l-153 -152 -148 149 c-182 183 -178 177 -150
205 31 32 55 18 178 -104z m-420 -493 c-4 -12 -24 -68 -46 -124 -54 -140 -62
-139 -122 15 -25 65 -46 121 -46 125 0 4 9 7 19 7 15 0 26 -19 50 -81 17 -44
31 -85 31 -90 0 -5 3 -9 8 -9 4 0 22 40 41 89 18 50 38 92 44 94 20 7 28 -4
21 -26z m216 5 c0 -14 -10 -17 -47 -17 -47 0 -48 -1 -51 -32 -3 -32 -2 -33 37
-33 34 0 41 -3 41 -20 0 -17 -7 -20 -40 -20 -39 0 -40 -1 -40 -34 l0 -35 53
-3 c38 -2 52 -7 52 -18 0 -12 -16 -16 -72 -18 l-73 -3 0 125 c0 141 -5 133 86
128 42 -3 54 -7 54 -20z m451 18 c10 -6 19 -17 19 -25 0 -12 -8 -14 -38 -9
-28 4 -41 2 -51 -10 -12 -14 -11 -19 4 -36 10 -11 27 -22 39 -26 38 -12 56
-35 56 -75 0 -46 -27 -69 -81 -69 -50 0 -69 8 -69 31 0 22 8 23 46 9 70 -27
91 40 22 72 -50 24 -74 61 -62 96 15 43 73 64 115 42z m551 -45 c18 -30 36
-55 40 -55 4 0 19 22 33 49 24 44 58 70 69 53 2 -4 -16 -38 -40 -77 -36 -59
-43 -78 -44 -122 0 -46 -3 -53 -20 -53 -17 0 -20 7 -20 50 0 40 -7 62 -40 115
-43 71 -46 81 -27 88 6 3 13 6 14 6 1 1 17 -24 35 -54z m503 39 c35 -16 65
-71 65 -120 0 -37 -25 -89 -51 -108 -37 -25 -115 -21 -144 8 -59 59 -52 169
14 213 40 27 71 29 116 7z m285 -2 c-1 -18 -19 -27 -55 -27 -38 0 -40 -2 -43
-32 -3 -30 -1 -32 35 -35 27 -2 39 -8 41 -20 3 -15 -4 -18 -37 -18 l-41 0 0
-55 c0 -48 -2 -55 -20 -55 -19 0 -20 7 -20 123 0 68 2 126 4 128 7 7 136 -2
136 -9z m-2890 -82 c0 -77 3 -93 20 -110 23 -23 49 -25 75 -6 16 11 20 30 23
110 4 87 6 96 24 96 19 0 20 -6 16 -101 -3 -96 -4 -102 -31 -125 -40 -34 -108
-34 -142 1 -23 22 -25 31 -25 125 0 93 1 100 20 100 19 0 20 -7 20 -90z m349
3 l61 -86 0 86 c0 80 2 87 20 87 19 0 20 -7 20 -126 0 -155 -7 -158 -97 -30
l-63 89 0 -92 c0 -84 -1 -91 -20 -91 -19 0 -20 7 -20 125 0 117 1 125 19 125
14 0 40 -28 80 -87z m981 67 c27 -27 26 -73 -4 -101 l-25 -24 34 -46 c18 -26
31 -50 28 -53 -16 -16 -41 -1 -72 44 -44 66 -61 65 -61 -1 0 -43 -3 -50 -17
-47 -16 3 -18 18 -21 126 l-3 122 61 0 c47 0 64 -4 80 -20z m-1266 -420 c14
-5 26 -17 26 -26 0 -13 -7 -15 -38 -9 -30 5 -42 2 -52 -11 -13 -14 -11 -19 11
-38 15 -11 40 -29 58 -38 27 -15 31 -23 31 -57 0 -48 -26 -71 -81 -71 -50 0
-69 8 -69 31 0 22 12 24 42 8 31 -17 68 -3 68 25 0 18 -11 30 -42 48 -23 13
-49 35 -58 51 -13 24 -13 30 0 54 13 23 37 37 72 42 4 1 18 -3 32 -9z m1921
-2 c27 -12 29 -16 16 -37 -6 -10 -13 -11 -29 -2 -59 32 -112 -9 -112 -86 0
-34 6 -50 26 -70 25 -25 42 -27 102 -8 18 6 22 4 22 -13 0 -15 -9 -22 -32 -28
-41 -9 -84 -7 -109 7 -46 24 -65 130 -33 190 25 49 96 72 149 47z m358 -5 c4
-2 7 -11 7 -20 0 -12 -7 -14 -36 -9 -36 7 -64 -5 -64 -28 0 -7 24 -25 53 -42
48 -28 52 -33 55 -71 4 -50 -22 -73 -79 -73 -51 0 -69 9 -69 32 0 14 5 18 16
14 40 -15 65 -17 79 -6 28 23 17 48 -35 76 -55 30 -70 59 -51 100 6 14 21 29
33 34 21 8 72 4 91 -7z m253 -5 c21 -20 2 -43 -24 -29 -31 16 -56 13 -86 -10
-22 -17 -26 -28 -26 -70 0 -40 5 -55 26 -76 25 -25 42 -27 102 -8 16 6 22 3
22 -8 0 -35 -92 -52 -139 -27 -49 26 -69 143 -34 197 32 49 124 67 159 31z
m235 -1 c84 -56 67 -210 -26 -236 -84 -23 -150 32 -150 124 0 110 92 168 176
112z m-2498 -105 c26 -64 47 -121 47 -125 0 -4 -9 -7 -19 -7 -13 0 -24 11 -32
35 -13 34 -15 35 -65 35 -49 0 -51 -1 -60 -32 -7 -23 -17 -34 -33 -36 -13 -2
-22 0 -20 6 2 5 24 61 49 125 37 98 48 117 65 117 18 0 29 -20 68 -118z m206
38 c30 -44 58 -80 62 -80 3 0 6 35 6 78 0 64 3 78 17 80 17 4 17 3 17 -93 0
-145 -1 -155 -15 -155 -8 0 -41 38 -73 85 -32 46 -61 85 -65 85 -5 0 -8 -38
-8 -85 0 -78 -2 -85 -20 -85 -19 0 -20 7 -20 125 0 123 0 125 23 125 16 0 36
-21 76 -80z m431 65 c0 -9 -10 -15 -22 -16 -62 -3 -63 -3 -66 -36 -3 -30 -1
-32 35 -35 27 -2 39 -8 41 -20 3 -15 -4 -18 -37 -18 l-41 0 0 -55 c0 -48 -2
-55 -20 -55 -19 0 -20 7 -20 125 l0 125 65 0 c51 0 65 -3 65 -15z m210 -5 c28
-28 26 -76 -4 -103 l-24 -22 33 -46 c18 -26 31 -50 28 -53 -15 -15 -36 -2 -69
44 -20 28 -40 50 -45 50 -5 0 -9 -20 -9 -45 0 -32 -5 -47 -15 -52 -9 -3 -19
-3 -22 1 -5 5 -7 115 -4 221 1 24 4 25 56 25 42 0 60 -5 75 -20z m257 -95 c48
-124 50 -135 24 -135 -12 0 -21 11 -27 33 -9 31 -11 32 -64 32 -53 0 -55 -1
-64 -32 -6 -22 -15 -33 -27 -33 -11 0 -19 4 -19 9 0 8 34 98 81 219 6 16 16
22 31 20 17 -2 30 -24 65 -113z m203 32 l55 -78 3 80 c3 73 5 81 22 81 19 0
20 -8 20 -125 0 -103 -3 -125 -15 -125 -8 0 -43 40 -77 89 l-63 90 -3 -90 c-2
-81 -5 -89 -22 -89 -19 0 -20 7 -20 126 0 124 0 125 22 122 15 -2 42 -30 78
-81z"/>
<path d="M3082 1327 c-32 -34 -31 -109 3 -142 30 -31 56 -32 92 -1 24 21 28
32 28 76 0 42 -4 55 -24 71 -32 26 -73 24 -99 -4z"/>
<path d="M3308 896 c-45 -34 -46 -120 -1 -156 33 -25 54 -25 87 1 22 17 26 29
26 68 0 82 -59 128 -112 87z"/>
</g>
</svg>
